<svg id="svg" version="1.1" xmlns="http://www.w3.org/2000/svg" xmlns:xlink="http://www.w3.org/1999/xlink" width="400" height="400" viewBox="0, 0, 400,400"><g id="svgg"><path id="path0" d="M189.365 66.589 C 132.009 74.782,105.415 143.785,142.952 187.018 C 146.047 190.584,146.114 190.604,146.887 188.203 C 147.185 187.279,147.524 186.436,147.641 186.328 C 147.758 186.221,148.542 185.080,149.383 183.794 C 151.254 180.932,154.217 177.755,156.749 175.897 C 158.526 174.592,158.632 174.417,158.443 173.093 C 158.333 172.315,158.134 170.523,158.003 169.110 L 157.765 166.540 169.005 159.811 C 178.719 153.996,180.353 153.141,181.041 153.512 C 181.478 153.748,185.510 156.175,190.001 158.904 L 198.167 163.867 198.083 170.514 L 197.998 177.162 198.995 178.098 C 201.058 180.036,201.528 178.742,201.651 170.781 L 201.758 163.933 210.742 158.498 C 217.356 154.497,219.881 153.157,220.313 153.420 C 220.635 153.616,225.700 156.644,231.568 160.148 L 242.237 166.521 242.033 167.928 C 241.921 168.702,241.733 170.566,241.615 172.070 L 241.400 174.805 243.612 176.367 C 245.962 178.027,248.992 181.407,250.876 184.469 C 251.505 185.492,252.279 186.328,252.596 186.328 C 252.917 186.328,253.053 186.519,252.904 186.760 C 252.597 187.258,253.488 190.234,253.944 190.234 C 255.414 190.234,263.056 179.559,266.543 172.633 C 278.083 149.715,277.013 123.156,263.685 101.671 L 261.692 98.459 259.850 99.176 C 255.147 101.005,248.505 101.214,243.951 99.677 L 241.701 98.917 241.981 105.474 C 242.135 109.081,242.289 112.307,242.322 112.644 C 242.374 113.170,220.880 126.564,219.985 126.562 C 219.843 126.562,215.684 124.136,210.742 121.171 L 201.758 115.780 201.660 103.691 L 201.563 91.602 209.956 86.816 C 219.829 81.188,218.336 81.438,223.643 84.524 C 228.688 87.458,228.298 87.468,227.199 84.432 C 226.321 82.009,226.270 81.956,223.214 80.297 C 220.142 78.630,220.104 78.590,218.483 75.343 C 216.180 70.732,216.057 70.832,221.720 72.710 C 225.916 74.101,225.665 74.140,225.843 72.070 L 225.977 70.508 222.656 69.413 C 213.586 66.423,199.120 65.196,189.365 66.589 M183.203 71.687 C 183.203 72.211,179.642 78.906,179.363 78.906 C 178.849 78.906,169.839 84.154,162.858 88.520 L 156.380 92.571 152.701 92.958 C 146.050 93.659,146.231 93.831,149.814 90.212 C 157.374 82.575,167.354 76.383,177.764 72.872 C 181.615 71.572,183.203 71.227,183.203 71.687 M190.234 86.999 L 198.242 91.602 198.231 94.434 C 198.224 95.991,198.180 101.449,198.133 106.563 L 198.047 115.860 194.824 117.787 C 193.052 118.847,189.068 121.262,185.971 123.155 C 182.875 125.047,180.150 126.544,179.917 126.481 C 179.683 126.418,175.801 124.151,171.289 121.442 C 166.777 118.733,161.840 115.798,160.318 114.919 L 157.550 113.321 157.679 111.251 C 157.750 110.112,157.985 106.495,158.201 103.215 C 158.417 99.934,158.594 96.819,158.594 96.293 C 158.594 95.172,158.966 94.915,172.013 87.043 C 178.906 82.883,181.086 81.740,181.583 82.026 C 181.937 82.230,185.830 84.467,190.234 86.999 M167.539 123.240 L 178.528 129.779 178.424 139.967 L 178.320 150.155 167.383 156.729 C 161.367 160.345,156.182 163.237,155.859 163.157 C 155.537 163.077,151.890 160.685,147.754 157.842 L 140.234 152.673 140.234 139.833 L 140.234 126.994 147.754 121.702 C 151.947 118.750,155.556 116.474,155.911 116.555 C 156.262 116.635,161.495 119.643,167.539 123.240 M252.195 121.757 L 259.766 127.109 259.745 139.824 L 259.723 152.539 252.083 157.813 C 247.881 160.713,244.155 163.086,243.804 163.086 C 243.201 163.086,223.009 151.202,221.983 150.244 C 221.616 149.901,221.570 147.449,221.788 139.645 L 222.070 129.492 233.003 122.949 C 239.015 119.351,244.090 116.406,244.280 116.406 C 244.469 116.406,248.031 118.814,252.195 121.757 M134.473 123.519 L 136.719 126.692 136.719 139.844 L 136.719 152.996 134.473 156.168 C 131.783 159.968,131.899 159.935,131.119 157.129 C 128.163 146.488,128.223 133.214,131.279 121.777 C 131.803 119.818,131.884 119.863,134.473 123.519 M269.139 123.820 C 271.685 133.795,271.674 144.411,269.105 155.566 C 268.055 160.125,268.301 160.080,265.527 156.226 L 263.281 153.104 263.281 139.857 L 263.281 126.611 265.670 123.441 C 266.983 121.698,268.111 120.325,268.176 120.390 C 268.240 120.455,268.674 121.998,269.139 123.820 M103.497 176.673 C 98.914 178.245,98.319 180.146,98.833 191.584 C 99.998 217.553,99.545 214.839,105.260 230.078 C 106.912 234.482,108.957 240.003,109.806 242.347 C 112.812 250.647,113.273 251.266,120.117 256.168 C 130.619 263.690,149.684 278.303,150.730 279.633 C 153.437 283.073,154.227 285.709,154.350 291.714 C 154.485 298.328,152.394 297.656,172.852 297.656 L 190.190 297.656 190.798 296.788 C 191.529 295.744,191.681 276.536,191.014 269.502 C 189.368 252.144,180.471 241.905,158.661 232.269 C 155.313 230.790,153.614 229.679,148.663 225.730 L 142.698 220.973 142.440 212.979 C 142.109 202.693,140.988 200.083,136.369 198.839 C 134.890 198.441,134.828 198.357,134.565 196.381 C 133.922 191.554,131.365 188.322,127.505 187.458 C 125.518 187.014,125.397 186.913,124.827 185.239 C 123.192 180.440,117.590 177.591,113.789 179.625 C 113.057 180.017,112.765 179.919,111.664 178.913 C 109.214 176.676,106.033 175.803,103.497 176.673 M291.792 176.761 C 290.823 177.065,289.360 177.926,288.542 178.676 C 287.271 179.840,286.913 179.984,286.080 179.667 C 281.708 178.005,276.784 180.471,275.120 185.155 C 274.490 186.929,274.325 187.088,272.865 187.331 C 268.660 188.029,266.125 191.166,265.381 196.590 C 265.163 198.183,265.018 198.383,263.927 198.601 C 259.233 199.540,257.925 202.465,257.487 212.994 C 257.302 217.455,257.080 221.157,256.993 221.221 C 256.907 221.286,254.227 223.415,251.039 225.953 C 245.974 229.985,244.690 230.802,240.882 232.415 C 221.738 240.524,212.877 249.574,209.702 264.258 C 208.587 269.417,208.134 295.139,209.132 296.662 L 209.784 297.656 227.148 297.656 L 244.513 297.656 245.058 296.777 C 245.417 296.197,245.627 294.505,245.677 291.797 C 245.876 280.945,246.236 280.570,280.533 255.551 C 283.831 253.146,285.867 251.358,286.641 250.190 C 287.755 248.508,298.952 219.138,299.630 216.117 C 300.007 214.436,301.172 191.296,301.172 185.475 C 301.172 178.311,297.559 174.954,291.792 176.761 M107.815 180.470 C 111.378 182.288,112.122 184.662,113.821 199.642 L 115.125 211.133 116.994 214.844 C 118.699 218.229,118.868 218.812,118.913 221.484 C 118.994 226.203,119.533 226.905,131.527 237.927 C 137.234 243.170,142.923 248.573,144.170 249.933 C 146.524 252.500,147.682 252.916,148.562 251.511 C 149.441 250.108,147.938 248.374,137.143 238.342 C 131.216 232.834,125.629 227.585,124.727 226.678 C 120.905 222.834,121.822 217.683,126.553 216.409 C 129.966 215.490,131.030 216.084,142.576 225.350 C 150.625 231.811,153.171 233.637,155.857 234.874 C 168.818 240.846,172.861 243.292,177.440 247.929 C 186.071 256.670,188.109 263.941,187.819 284.961 L 187.695 293.945 172.852 293.945 L 158.008 293.945 157.769 289.453 C 157.485 284.126,156.463 281.152,153.714 277.648 C 152.159 275.668,132.809 260.733,119.804 251.477 C 115.753 248.593,115.920 248.952,106.030 221.786 L 103.509 214.862 102.784 199.149 C 102.005 182.260,102.061 181.250,103.826 180.292 C 105.257 179.516,106.011 179.549,107.815 180.470 M296.531 180.787 C 297.970 182.073,297.910 180.711,297.259 197.266 C 296.526 215.927,296.969 213.655,290.814 230.273 C 283.279 250.619,286.302 246.775,265.797 262.096 C 243.016 279.118,243.007 279.129,241.958 291.504 L 241.735 294.141 226.867 294.141 L 211.999 294.141 212.225 281.152 C 212.476 266.709,212.895 263.488,215.172 258.470 C 219.189 249.620,227.271 242.297,238.364 237.454 C 246.766 233.787,247.355 233.416,256.404 226.107 C 261.281 222.168,266.101 218.376,267.115 217.681 C 271.995 214.332,278.062 216.816,277.617 221.981 C 277.389 224.628,276.555 225.615,267.745 233.672 C 252.750 247.384,250.251 250.178,251.567 251.763 C 252.487 252.872,253.584 252.383,255.936 249.815 C 257.211 248.424,261.538 244.265,265.553 240.572 C 280.635 226.699,280.975 226.285,281.086 221.633 C 281.144 219.200,281.382 218.368,282.988 214.992 L 284.823 211.133 285.953 201.109 C 286.575 195.596,287.274 189.890,287.508 188.429 C 288.572 181.768,293.221 177.830,296.531 180.787 M119.189 183.375 C 121.353 184.845,121.777 186.185,122.226 192.976 C 123.615 213.967,123.585 213.218,123.045 213.870 C 120.344 217.124,118.867 213.311,117.217 198.828 C 116.520 192.705,115.701 186.703,115.397 185.490 C 114.713 182.763,114.706 182.906,115.527 182.691 C 117.008 182.304,117.844 182.460,119.189 183.375 M284.487 182.910 C 285.080 183.353,285.088 183.578,284.576 185.352 C 284.034 187.232,281.641 206.048,281.641 208.430 C 281.641 209.536,279.187 215.234,278.710 215.234 C 277.248 215.234,276.128 213.384,276.348 211.332 C 276.476 210.148,276.921 204.193,277.338 198.099 C 278.172 185.902,278.393 184.973,280.853 183.301 C 282.304 182.315,283.518 182.185,284.487 182.910 M128.489 191.754 C 130.644 193.282,131.008 194.811,131.402 204.007 C 131.818 213.722,132.000 212.992,129.259 212.598 L 127.148 212.295 126.497 203.901 C 125.917 196.435,125.653 191.848,125.749 190.892 C 125.793 190.452,127.339 190.938,128.489 191.754 M273.662 200.459 C 272.738 213.315,272.980 212.353,270.586 212.636 C 267.995 212.943,268.164 213.705,268.604 203.741 C 269.036 193.966,269.497 192.437,272.388 191.210 C 274.322 190.389,274.364 190.694,273.662 200.459 M137.273 203.483 C 138.536 204.801,139.016 207.694,139.045 214.166 L 139.063 217.981 137.132 216.510 L 135.201 215.039 135.178 211.092 C 135.166 208.922,135.043 206.065,134.905 204.745 C 134.608 201.897,135.366 201.492,137.273 203.483 M265.088 203.564 C 264.954 204.236,264.844 207.021,264.844 209.753 L 264.844 214.721 262.828 216.422 L 260.811 218.122 261.048 211.760 C 261.237 206.674,261.420 205.190,261.961 204.359 C 263.479 202.026,265.498 201.513,265.088 203.564 M167.433 332.191 C 159.532 335.128,158.782 346.830,166.267 350.385 C 175.198 354.627,184.711 347.060,181.672 338.133 C 179.987 333.183,172.815 330.190,167.433 332.191 M138.672 341.602 L 138.672 351.172 144.265 351.172 C 154.696 351.172,159.478 347.495,158.400 340.303 C 157.482 334.183,153.856 332.031,144.462 332.031 L 138.672 332.031 138.672 341.602 M185.938 341.602 L 185.938 351.172 188.281 351.172 L 190.625 351.172 190.636 345.605 L 190.646 340.039 191.905 341.418 C 192.598 342.177,194.705 344.682,196.589 346.985 L 200.013 351.172 201.960 351.172 L 203.906 351.172 203.906 341.602 L 203.906 332.031 201.758 332.031 L 199.609 332.031 199.609 337.695 C 199.609 340.811,199.478 343.347,199.316 343.332 C 199.155 343.317,197.002 340.779,194.531 337.691 L 190.039 332.076 187.988 332.054 L 185.938 332.031 185.938 341.602 M211.328 340.452 C 209.287 345.087,207.393 349.403,207.120 350.044 L 206.623 351.210 209.064 351.093 L 211.504 350.977 212.151 349.219 L 212.798 347.461 217.353 347.351 L 221.908 347.241 222.725 349.206 L 223.542 351.172 225.879 351.172 C 228.692 351.172,228.921 352.344,223.900 341.016 L 220.004 332.227 217.522 332.126 L 215.039 332.025 211.328 340.452 M226.953 333.789 L 226.953 335.547 230.078 335.547 L 233.203 335.547 233.203 343.359 L 233.203 351.172 235.547 351.172 L 237.891 351.172 237.891 343.359 L 237.891 335.547 241.016 335.547 L 244.141 335.547 244.141 333.789 L 244.141 332.031 235.547 332.031 L 226.953 332.031 226.953 333.789 M246.875 341.602 L 246.875 351.172 254.492 351.172 L 262.109 351.172 262.109 349.414 L 262.109 347.656 256.816 347.656 L 251.524 347.656 251.641 345.410 C 251.727 343.748,251.910 343.154,252.344 343.126 C 252.666 343.105,254.644 343.061,256.738 343.028 L 260.547 342.969 260.547 341.406 L 260.547 339.844 257.129 339.772 C 255.249 339.732,253.271 339.682,252.734 339.662 C 251.838 339.627,251.748 339.455,251.640 337.585 L 251.522 335.547 256.620 335.547 L 261.719 335.547 261.719 333.789 L 261.719 332.031 254.297 332.031 L 246.875 332.031 246.875 341.602 M151.112 336.676 C 152.981 338.007,153.630 339.564,153.435 342.251 C 153.157 346.096,150.962 347.649,145.801 347.654 L 143.359 347.656 143.359 341.553 L 143.359 335.449 146.614 335.620 C 149.190 335.755,150.128 335.975,151.112 336.676 M174.729 336.274 C 179.651 339.520,177.790 347.161,171.977 347.568 C 165.790 348.001,163.129 339.901,168.319 336.434 C 170.016 335.300,173.133 335.223,174.729 336.274 M218.931 340.039 C 219.524 341.543,220.096 342.993,220.203 343.262 C 220.347 343.626,219.652 343.750,217.461 343.750 L 214.525 343.750 215.928 340.228 C 217.501 336.278,217.449 336.281,218.931 340.039 " stroke="none" fill="#3c3f41" fill-rule="evenodd"></path><path id="path1" d="M0.000 200.000 L 0.000 400.000 200.000 400.000 L 400.000 400.000 400.000 200.000 L 400.000 0.000 200.000 0.000 L 0.000 0.000 0.000 200.000 M256.589 55.255 C 272.112 59.386,277.217 78.614,265.835 90.071 C 252.666 103.326,230.112 94.029,230.083 75.334 C 230.062 61.827,243.379 51.739,256.589 55.255 M245.893 59.296 C 230.358 64.668,230.140 86.292,245.570 91.427 C 256.604 95.099,267.969 86.963,267.969 75.391 C 267.969 64.054,256.440 55.649,245.893 59.296 M253.125 63.786 C 253.125 64.980,253.251 65.106,254.883 65.542 L 256.641 66.013 256.641 68.163 C 256.641 70.620,256.717 70.564,254.790 69.531 C 251.974 68.022,248.828 68.842,248.828 71.084 C 248.828 73.251,249.078 73.438,251.995 73.438 L 254.688 73.438 254.688 75.195 L 254.688 76.953 252.539 76.953 C 250.572 76.953,250.390 77.027,250.388 77.832 C 250.387 78.315,250.123 79.214,249.802 79.830 C 249.481 80.445,249.219 81.018,249.219 81.104 C 249.219 81.189,251.196 81.213,253.613 81.157 L 258.008 81.055 258.126 82.892 L 258.244 84.729 255.587 84.845 L 252.930 84.961 252.807 86.447 L 252.685 87.933 251.049 87.814 C 249.458 87.699,249.411 87.655,249.291 86.192 L 249.167 84.688 246.404 84.824 L 243.641 84.961 243.485 83.453 C 243.347 82.125,243.494 81.799,244.716 80.719 C 247.391 78.353,246.847 76.402,243.652 76.907 C 243.491 76.932,243.345 76.558,243.327 76.074 C 243.309 75.591,243.250 74.800,243.197 74.316 C 243.117 73.600,243.292 73.438,244.140 73.438 C 245.162 73.438,245.178 73.398,245.005 71.313 C 244.783 68.633,245.771 66.847,248.040 65.823 C 249.419 65.202,249.609 64.957,249.609 63.808 C 249.609 62.518,249.634 62.500,251.367 62.500 C 253.095 62.500,253.125 62.522,253.125 63.786 M207.435 66.036 C 212.701 66.576,218.096 67.699,222.596 69.191 L 226.247 70.402 225.978 72.213 C 225.829 73.209,225.675 74.059,225.634 74.102 C 225.593 74.145,223.647 73.573,221.309 72.831 C 216.196 71.209,216.482 70.954,218.685 75.168 C 220.499 78.639,220.523 78.664,223.528 80.246 C 225.189 81.120,226.555 82.012,226.564 82.227 C 226.573 82.441,227.011 83.663,227.536 84.941 C 228.743 87.877,229.092 87.895,223.576 84.735 L 218.844 82.023 210.402 86.812 L 201.961 91.602 202.055 103.688 L 202.148 115.775 211.060 121.135 L 219.972 126.494 231.113 119.812 L 242.255 113.129 242.037 110.178 C 241.917 108.555,241.707 105.312,241.571 102.971 L 241.323 98.715 242.244 98.977 C 246.391 100.155,247.887 100.391,251.210 100.391 C 254.097 100.391,255.798 100.157,258.407 99.401 C 260.285 98.856,261.891 98.479,261.974 98.562 C 262.057 98.646,263.244 100.577,264.612 102.854 C 278.371 125.763,277.879 156.180,263.383 178.888 C 260.540 183.342,254.670 190.625,253.923 190.625 C 253.438 190.625,252.259 187.173,252.571 186.668 C 252.741 186.391,252.687 186.311,252.435 186.467 C 252.192 186.617,251.407 185.727,250.574 184.355 C 248.827 181.479,245.535 177.861,242.921 175.941 C 241.624 174.990,241.050 174.313,241.173 173.883 C 241.274 173.531,241.474 171.734,241.617 169.891 L 241.878 166.540 231.223 160.169 C 225.362 156.665,220.290 153.731,219.952 153.649 C 219.613 153.567,215.469 155.847,210.742 158.716 L 202.148 163.932 202.042 170.773 C 201.940 177.352,201.901 177.647,201.031 178.464 L 200.127 179.314 199.096 178.503 L 198.065 177.692 197.958 170.809 L 197.852 163.926 189.099 158.581 L 180.347 153.237 169.237 159.899 L 158.128 166.562 158.400 170.725 L 158.672 174.888 157.348 175.706 C 153.931 177.818,148.366 184.811,146.967 188.751 C 146.116 191.145,146.249 191.190,142.972 187.402 C 99.751 137.443,141.285 59.247,207.435 66.036 M178.125 73.016 C 166.724 76.874,156.006 83.630,148.936 91.414 L 147.333 93.179 151.902 92.778 L 156.472 92.377 160.170 89.989 C 165.163 86.765,175.112 80.812,177.636 79.538 C 179.529 78.582,184.197 71.465,182.914 71.490 C 182.751 71.493,180.596 72.180,178.125 73.016 M172.070 87.228 C 158.257 95.574,159.082 94.944,158.814 97.357 C 158.592 99.360,157.813 111.215,157.813 112.588 C 157.813 113.017,158.655 113.749,160.059 114.540 C 161.294 115.236,166.304 118.205,171.193 121.139 L 180.081 126.473 188.966 121.119 L 197.852 115.764 197.943 103.683 L 198.035 91.602 189.765 86.914 C 185.217 84.336,181.309 82.183,181.080 82.131 C 180.851 82.078,176.797 84.372,172.070 87.228 M149.214 120.967 C 145.672 123.438,142.200 125.894,141.499 126.425 L 140.224 127.392 140.327 139.965 L 140.430 152.538 148.223 157.896 L 156.016 163.255 157.829 162.194 C 158.826 161.610,163.791 158.672,168.862 155.664 L 178.083 150.195 178.104 139.984 L 178.125 129.772 167.090 123.226 C 161.021 119.625,155.965 116.634,155.855 116.577 C 155.745 116.521,152.757 118.497,149.214 120.967 M233.073 123.164 L 221.875 129.877 221.893 140.036 L 221.911 150.195 232.791 156.641 C 238.775 160.186,243.798 163.072,243.952 163.054 C 244.106 163.037,247.718 160.591,251.979 157.619 L 259.725 152.215 259.648 139.698 L 259.570 127.181 254.688 123.739 C 252.002 121.846,248.560 119.432,247.038 118.374 L 244.272 116.450 233.073 123.164 M130.926 124.108 C 128.476 135.193,128.476 144.099,130.923 155.176 C 131.927 159.721,131.728 159.668,134.277 156.075 L 136.328 153.184 136.328 139.830 L 136.328 126.476 134.324 123.687 C 133.221 122.153,132.196 120.761,132.045 120.592 C 131.894 120.424,131.390 122.006,130.926 124.108 M265.950 123.440 L 263.786 126.367 263.564 139.453 L 263.342 152.539 265.527 155.773 C 267.992 159.420,268.020 159.420,268.902 155.664 C 271.398 145.034,271.296 132.510,268.632 122.464 L 268.114 120.514 265.950 123.440 M180.024 173.845 C 187.331 174.761,194.216 178.574,198.947 184.326 C 199.544 185.052,200.075 185.579,200.127 185.498 C 204.519 178.731,214.347 173.710,223.242 173.688 C 246.600 173.632,259.052 198.862,245.731 219.254 C 241.552 225.651,238.313 228.968,234.850 230.398 C 222.465 235.510,211.909 245.306,207.800 255.501 C 206.070 259.791,201.079 264.264,199.147 263.254 C 196.822 262.038,193.365 258.816,192.931 257.460 C 189.497 246.738,178.457 236.022,165.125 230.473 L 161.523 228.974 157.887 224.350 C 140.091 201.721,149.382 175.894,176.182 173.491 C 176.510 173.462,178.239 173.621,180.024 173.845 M108.732 176.709 C 109.439 177.004,110.663 177.813,111.452 178.506 C 112.763 179.656,112.994 179.728,114.119 179.336 C 118.534 177.797,123.187 180.193,124.948 184.913 C 125.653 186.804,125.784 186.926,127.397 187.201 C 131.207 187.850,134.253 191.589,134.664 196.121 C 134.840 198.063,134.994 198.438,135.617 198.438 C 136.657 198.438,139.099 199.749,140.091 200.841 C 142.082 203.032,142.299 204.040,142.636 212.669 C 142.811 217.166,143.090 220.976,143.255 221.135 C 146.284 224.061,155.266 230.578,157.743 231.645 C 173.847 238.589,182.103 245.072,187.068 254.671 C 190.800 261.886,191.406 265.904,191.406 283.405 L 191.406 296.831 190.538 297.439 C 189.371 298.256,157.072 298.352,155.469 297.543 C 154.523 297.066,154.485 296.889,154.255 291.982 C 153.816 282.587,152.809 280.881,143.587 273.908 C 135.115 267.502,124.919 259.920,119.571 256.046 C 112.449 250.889,113.350 252.473,105.511 231.320 L 99.964 216.351 99.598 210.812 C 98.270 190.731,98.154 182.163,99.181 180.160 C 101.002 176.609,105.020 175.158,108.732 176.709 M297.639 176.944 C 299.360 177.822,300.452 179.201,301.164 181.397 C 301.701 183.049,300.750 210.279,299.990 215.039 C 299.671 217.041,291.589 239.493,288.390 247.266 C 286.881 250.933,284.864 252.698,266.992 265.997 C 245.909 281.685,245.739 281.905,245.711 293.630 C 245.699 298.396,247.166 298.047,227.148 298.047 C 212.309 298.047,210.224 297.973,209.431 297.417 L 208.531 296.787 208.687 281.499 C 208.838 266.561,208.865 266.126,209.844 262.496 C 213.540 248.786,221.987 240.460,240.329 232.448 C 244.784 230.501,245.914 229.787,251.121 225.630 L 256.936 220.986 257.210 213.520 C 257.606 202.755,258.663 200.167,263.289 198.630 C 265.089 198.032,265.234 197.889,265.234 196.719 C 265.234 192.003,268.447 187.911,272.723 187.181 C 274.100 186.946,274.354 186.732,274.801 185.430 C 276.526 180.414,281.354 177.758,285.881 179.336 C 287.006 179.728,287.237 179.656,288.546 178.507 C 291.330 176.063,294.757 175.474,297.639 176.944 M103.618 180.675 C 102.293 181.603,102.239 182.906,102.908 197.883 C 103.684 215.274,103.601 214.782,107.551 225.412 C 109.344 230.234,111.831 236.961,113.080 240.359 C 114.328 243.758,115.726 247.098,116.186 247.781 C 117.183 249.262,117.242 249.309,136.237 263.467 C 156.766 278.769,158.203 280.589,158.203 291.283 L 158.203 294.141 172.886 294.141 L 187.570 294.141 187.392 280.762 C 187.199 266.207,186.946 264.087,184.786 258.919 C 180.822 249.439,172.737 242.467,158.785 236.500 C 153.048 234.047,152.080 233.381,140.351 223.831 C 131.151 216.341,129.234 215.443,125.639 216.945 C 120.551 219.071,121.519 223.543,128.449 229.923 C 147.512 247.474,149.749 249.842,148.848 251.526 C 148.150 252.830,145.313 252.899,145.313 251.611 C 145.313 251.182,139.221 245.268,130.078 236.822 C 119.047 226.631,118.597 226.012,118.636 221.094 C 118.654 218.815,118.461 218.165,116.753 214.759 L 114.849 210.963 113.672 200.306 C 112.396 188.750,111.944 185.979,111.043 184.180 C 109.320 180.742,105.857 179.107,103.618 180.675 M291.992 180.805 C 288.393 183.028,287.869 185.133,285.531 206.770 C 285.131 210.466,284.849 211.477,283.293 214.777 C 281.754 218.043,281.503 218.929,281.445 221.314 C 281.333 225.859,280.486 227.015,270.508 236.246 C 261.171 244.882,256.743 249.140,254.818 251.328 C 253.428 252.909,252.404 253.098,251.376 251.963 C 249.834 250.259,251.349 248.533,267.285 233.839 C 278.747 223.271,280.082 220.342,274.881 217.170 C 271.268 214.967,269.685 215.729,257.488 225.543 C 252.046 229.922,247.036 233.785,246.355 234.128 C 245.674 234.471,242.527 235.877,239.362 237.253 C 224.877 243.549,216.218 252.586,213.432 264.313 C 212.930 266.424,212.757 269.871,212.613 280.566 L 212.431 294.141 227.114 294.141 L 241.797 294.141 241.800 291.699 C 241.813 280.484,243.154 278.744,263.380 263.669 C 272.027 257.224,280.019 251.254,281.140 250.401 C 283.799 248.379,284.110 247.726,290.269 231.205 C 296.532 214.405,296.286 215.551,296.934 200.195 C 297.685 182.392,297.671 181.741,296.539 180.824 C 295.372 179.880,293.502 179.872,291.992 180.805 M172.145 182.617 C 167.170 183.985,162.003 188.044,159.676 192.412 C 157.349 196.780,156.522 204.377,158.301 205.040 C 160.185 205.741,160.706 205.071,161.191 201.323 C 162.258 193.081,166.099 188.378,173.411 186.359 C 177.077 185.347,177.790 184.431,176.172 182.813 C 175.281 181.922,174.767 181.897,172.145 182.617 M115.149 183.028 C 115.030 183.147,115.181 184.070,115.485 185.079 C 115.789 186.088,116.653 192.157,117.404 198.566 C 119.071 212.789,120.139 216.022,122.550 214.151 L 123.420 213.477 122.868 205.664 C 122.565 201.367,122.202 195.742,122.063 193.164 C 121.744 187.265,121.346 185.721,119.731 184.106 C 118.509 182.884,115.905 182.272,115.149 183.028 M280.068 184.293 C 278.277 186.084,278.378 185.462,277.306 201.324 L 276.491 213.390 277.601 214.282 L 278.711 215.174 279.933 212.763 C 280.724 211.204,281.253 209.454,281.430 207.813 C 282.576 197.184,284.041 185.839,284.384 184.936 C 285.389 182.293,282.499 181.863,280.068 184.293 M125.785 191.504 C 125.789 191.976,125.988 194.511,126.978 206.738 L 127.445 212.500 129.506 212.500 L 131.567 212.500 131.417 210.254 C 131.335 209.019,131.191 205.368,131.097 202.141 C 130.905 195.585,130.395 193.633,128.443 191.991 C 127.211 190.954,125.779 190.692,125.785 191.504 M271.461 192.072 C 269.634 193.609,269.224 194.980,268.968 200.408 C 268.841 203.084,268.646 206.965,268.534 209.032 L 268.330 212.791 270.002 212.485 C 270.921 212.317,271.808 212.263,271.972 212.365 C 272.476 212.676,272.590 211.818,273.226 202.930 C 273.564 198.203,273.936 193.589,274.054 192.676 C 274.317 190.624,273.428 190.417,271.461 192.072 M135.158 204.980 C 135.159 206.431,135.273 209.320,135.411 211.401 L 135.661 215.184 137.264 216.336 L 138.867 217.489 138.672 211.342 C 138.469 204.970,138.370 204.583,136.540 203.036 C 135.291 201.979,135.156 202.169,135.158 204.980 M262.894 203.452 C 261.605 204.741,261.410 205.826,261.222 212.747 L 261.093 217.485 262.758 216.262 C 264.326 215.110,264.424 214.925,264.440 213.086 C 264.449 212.012,264.571 209.155,264.710 206.738 C 264.991 201.855,264.813 201.533,262.894 203.452 M175.603 332.071 C 183.770 335.127,184.913 345.894,177.531 350.221 C 170.867 354.126,162.315 350.625,160.951 343.433 C 159.419 335.352,167.540 329.054,175.603 332.071 M150.768 332.065 C 161.267 334.316,161.181 348.972,150.657 351.157 C 149.518 351.394,146.312 351.538,143.532 351.477 L 138.477 351.367 138.372 342.000 C 138.314 336.848,138.352 332.409,138.457 332.137 C 138.701 331.501,147.891 331.448,150.768 332.065 M194.525 337.362 L 199.023 342.888 199.132 337.265 L 199.240 331.641 201.768 331.641 L 204.297 331.641 204.297 341.602 L 204.297 351.563 202.179 351.563 L 200.061 351.563 195.538 346.064 L 191.016 340.566 191.016 342.488 C 191.016 343.546,190.901 346.020,190.762 347.987 L 190.508 351.563 188.223 351.563 L 185.938 351.563 185.938 341.581 L 185.938 331.600 187.982 331.718 L 190.027 331.836 194.525 337.362 M220.947 333.887 C 221.487 335.122,223.411 339.474,225.222 343.557 C 229.158 352.429,229.086 351.624,225.928 351.483 L 223.341 351.367 222.705 349.739 C 222.356 348.844,221.982 348.023,221.874 347.915 C 221.702 347.743,215.353 347.515,213.613 347.618 C 213.209 347.642,212.707 348.384,212.267 349.609 L 211.564 351.563 208.920 351.563 C 206.513 351.563,206.300 351.498,206.556 350.846 C 206.710 350.452,208.682 345.970,210.938 340.887 L 215.039 331.645 217.502 331.643 L 219.965 331.641 220.947 333.887 M244.531 333.789 L 244.531 335.938 241.406 335.938 L 238.281 335.938 238.281 343.750 L 238.281 351.563 235.742 351.563 L 233.203 351.563 233.203 343.750 L 233.203 335.938 230.078 335.938 L 226.953 335.938 226.953 333.789 L 226.953 331.641 235.742 331.641 L 244.531 331.641 244.531 333.789 M261.719 333.828 L 261.719 336.016 256.738 335.879 L 251.758 335.742 251.639 337.598 L 251.520 339.453 256.033 339.453 L 260.547 339.453 260.547 341.406 L 260.547 343.359 256.034 343.359 L 251.522 343.359 251.640 345.334 L 251.758 347.309 257.031 347.385 L 262.305 347.461 262.423 349.520 L 262.541 351.579 254.611 351.473 L 246.680 351.367 246.616 341.802 C 246.582 336.541,246.636 332.102,246.737 331.938 C 246.838 331.775,250.251 331.641,254.320 331.641 L 261.719 331.641 261.719 333.828 M169.336 336.077 C 164.198 338.454,165.139 346.521,170.663 347.454 C 175.321 348.241,178.877 343.049,176.660 338.700 C 175.322 336.078,171.947 334.869,169.336 336.077 M143.359 341.640 L 143.359 347.343 146.850 347.207 C 156.384 346.834,155.860 335.938,146.308 335.938 L 143.359 335.938 143.359 341.640 M216.197 340.125 C 215.560 341.763,214.980 343.249,214.909 343.427 C 214.837 343.605,215.936 343.750,217.350 343.750 C 218.765 343.750,219.921 343.618,219.920 343.457 C 219.919 343.079,217.772 337.563,217.534 337.326 C 217.435 337.227,216.833 338.486,216.197 340.125 " stroke="none" fill="#fbfbfb" fill-rule="evenodd"></path><path id="path2" d="M178.266 133.984 C 178.266 136.025,178.332 136.860,178.412 135.840 C 178.493 134.819,178.493 133.149,178.412 132.129 C 178.332 131.108,178.266 131.943,178.266 133.984 M170.508 174.448 C 150.357 178.917,142.506 201.648,154.801 219.922 C 159.098 226.308,161.439 228.655,165.075 230.219 C 178.530 236.009,189.355 246.267,192.801 256.496 C 193.592 258.841,197.406 262.617,199.522 263.148 C 201.527 263.651,206.085 259.260,207.651 255.319 C 211.446 245.763,220.873 236.776,233.280 230.885 C 238.623 228.348,239.255 227.797,243.825 221.680 C 255.782 205.674,252.119 184.642,235.999 176.742 C 224.572 171.141,210.507 173.914,202.016 183.441 L 200.050 185.647 197.193 182.735 C 190.051 175.458,180.012 172.340,170.508 174.448 M176.339 182.645 C 177.878 184.183,176.833 185.842,173.992 186.373 C 166.957 187.687,161.375 194.633,161.338 202.118 C 161.327 204.231,160.555 205.469,159.248 205.469 C 155.175 205.469,157.020 194.483,162.074 188.639 C 165.969 184.134,174.320 180.625,176.339 182.645 M208.684 272.656 C 208.684 273.408,208.765 273.716,208.863 273.340 C 208.961 272.964,208.961 272.349,208.863 271.973 C 208.765 271.597,208.684 271.904,208.684 272.656 M212.246 278.125 C 212.246 279.951,212.313 280.698,212.395 279.785 C 212.478 278.872,212.478 277.378,212.395 276.465 C 212.313 275.552,212.246 276.299,212.246 278.125 " stroke="none" fill="#9b3c45" fill-rule="evenodd"></path><path id="path3" d="M245.542 55.307 C 234.877 58.212,227.957 69.816,230.672 80.241 C 236.898 104.145,271.838 99.838,271.870 75.162 C 271.888 61.602,258.765 51.705,245.542 55.307 M256.323 59.236 C 267.529 62.763,271.725 76.827,264.321 86.043 C 255.181 97.420,236.493 92.494,234.268 78.122 C 232.338 65.653,244.265 55.440,256.323 59.236 M249.609 63.862 C 249.609 65.027,249.426 65.302,248.340 65.765 C 245.943 66.786,245.117 68.109,245.117 70.930 C 245.117 73.270,245.058 73.438,244.238 73.438 C 243.473 73.438,243.359 73.640,243.359 75.000 C 243.359 76.443,243.442 76.563,244.434 76.568 C 246.879 76.582,247.069 79.863,244.687 80.948 C 243.826 81.341,243.726 81.599,243.829 83.177 L 243.945 84.961 246.582 84.828 L 249.219 84.694 249.225 85.804 C 249.239 88.428,252.368 88.895,252.734 86.328 L 252.930 84.961 255.368 84.845 C 257.564 84.740,257.830 84.636,258.040 83.801 C 258.597 81.579,258.372 81.455,253.572 81.335 C 249.565 81.234,249.172 81.160,249.422 80.553 C 249.575 80.185,249.832 79.332,249.993 78.659 C 250.453 76.749,250.699 76.563,252.757 76.563 L 254.688 76.563 254.688 75.000 L 254.688 73.438 251.995 73.438 C 249.088 73.438,248.828 73.248,248.828 71.122 C 248.828 68.955,252.214 67.922,254.688 69.336 C 256.354 70.288,256.641 70.087,256.641 67.967 L 256.641 66.013 254.883 65.542 C 253.251 65.106,253.125 64.980,253.125 63.786 C 253.125 62.522,253.095 62.500,251.367 62.500 C 249.620 62.500,249.609 62.508,249.609 63.862 " stroke="none" fill="#d6ac5d" fill-rule="evenodd"></path><path id="path4" d="M197.363 65.915 C 198.813 65.990,201.187 65.990,202.637 65.915 C 204.087 65.840,202.900 65.778,200.000 65.778 C 197.100 65.778,195.913 65.840,197.363 65.915 M251.660 76.842 C 252.251 76.932,253.218 76.932,253.809 76.842 C 254.399 76.753,253.916 76.680,252.734 76.680 C 251.553 76.680,251.069 76.753,251.660 76.842 M253.320 81.093 C 255.118 81.385,258.116 81.424,257.948 81.152 C 257.848 80.991,256.590 80.883,255.153 80.913 C 253.715 80.942,252.891 81.023,253.320 81.093 M146.875 87.695 C 145.926 88.662,145.238 89.453,145.345 89.453 C 145.453 89.453,146.317 88.662,147.266 87.695 C 148.214 86.729,148.903 85.938,148.795 85.938 C 148.688 85.938,147.824 86.729,146.875 87.695 M152.124 87.988 L 150.977 89.258 152.246 88.111 C 153.429 87.041,153.695 86.719,153.393 86.719 C 153.326 86.719,152.755 87.290,152.124 87.988 M148.317 91.720 L 146.866 93.206 148.531 93.231 C 149.907 93.251,149.967 93.226,148.877 93.084 L 147.558 92.912 148.856 91.573 C 149.569 90.837,150.067 90.234,149.961 90.234 C 149.855 90.234,149.115 90.903,148.317 91.720 M201.654 103.370 C 201.570 114.550,201.618 115.573,202.246 116.065 C 202.850 116.539,202.874 116.530,202.447 115.983 C 202.094 115.529,201.935 112.134,201.855 103.287 L 201.746 91.211 201.654 103.370 M198.168 93.945 C 198.170 95.234,198.243 95.715,198.330 95.013 C 198.417 94.310,198.415 93.256,198.326 92.669 C 198.237 92.082,198.166 92.656,198.168 93.945 M152.441 92.847 C 152.817 92.946,153.433 92.946,153.809 92.847 C 154.185 92.749,153.877 92.669,153.125 92.669 C 152.373 92.669,152.065 92.749,152.441 92.847 M159.063 95.000 C 158.805 95.258,158.618 95.917,158.647 96.465 L 158.700 97.461 158.880 96.484 C 158.978 95.947,159.240 95.288,159.460 95.020 C 159.972 94.397,159.680 94.382,159.063 95.000 M250.684 96.369 C 251.167 96.463,251.958 96.463,252.441 96.369 C 252.925 96.276,252.529 96.200,251.563 96.200 C 250.596 96.200,250.200 96.276,250.684 96.369 M241.523 100.781 C 241.523 101.963,241.597 102.446,241.686 101.855 C 241.776 101.265,241.776 100.298,241.686 99.707 C 241.597 99.116,241.523 99.600,241.523 100.781 M158.302 101.367 C 158.306 102.227,158.386 102.532,158.479 102.046 C 158.573 101.560,158.569 100.857,158.472 100.484 C 158.374 100.110,158.297 100.508,158.302 101.367 M249.522 100.677 C 250.441 100.760,251.847 100.759,252.647 100.675 C 253.447 100.591,252.695 100.523,250.977 100.525 C 249.258 100.526,248.603 100.595,249.522 100.677 M157.930 107.422 C 157.930 108.604,158.003 109.087,158.092 108.496 C 158.182 107.905,158.182 106.938,158.092 106.348 C 158.003 105.757,157.930 106.240,157.930 107.422 M241.914 108.203 C 241.914 109.385,241.987 109.868,242.077 109.277 C 242.166 108.687,242.166 107.720,242.077 107.129 C 241.987 106.538,241.914 107.021,241.914 108.203 M136.504 139.844 C 136.504 147.256,136.556 150.288,136.620 146.582 C 136.685 142.876,136.685 136.812,136.620 133.105 C 136.556 129.399,136.504 132.432,136.504 139.844 M263.452 136.719 C 263.452 142.412,263.506 144.741,263.573 141.895 C 263.640 139.048,263.640 134.390,263.573 131.543 C 263.506 128.696,263.452 131.025,263.452 136.719 M125.481 132.813 C 125.481 133.564,125.562 133.872,125.660 133.496 C 125.758 133.120,125.758 132.505,125.660 132.129 C 125.562 131.753,125.481 132.061,125.481 132.813 M274.317 133.789 C 274.322 134.648,274.402 134.954,274.495 134.468 C 274.588 133.982,274.585 133.279,274.487 132.906 C 274.389 132.532,274.313 132.930,274.317 133.789 M129.005 135.352 C 129.009 136.211,129.089 136.517,129.183 136.031 C 129.276 135.545,129.272 134.842,129.175 134.468 C 129.077 134.095,129.000 134.492,129.005 135.352 M270.854 139.453 C 270.854 142.139,270.916 143.237,270.992 141.895 C 271.069 140.552,271.069 138.354,270.992 137.012 C 270.916 135.669,270.854 136.768,270.854 139.453 M259.500 138.281 C 259.500 139.678,259.571 140.249,259.658 139.551 C 259.744 138.853,259.744 137.710,259.658 137.012 C 259.571 136.313,259.500 136.885,259.500 138.281 M125.117 139.453 C 125.117 140.635,125.190 141.118,125.280 140.527 C 125.369 139.937,125.369 138.970,125.280 138.379 C 125.190 137.788,125.117 138.271,125.117 139.453 M178.284 143.750 C 178.284 147.295,178.343 148.745,178.416 146.973 C 178.488 145.200,178.488 142.300,178.416 140.527 C 178.343 138.755,178.284 140.205,178.284 143.750 M129.013 143.750 C 129.013 144.717,129.089 145.112,129.182 144.629 C 129.275 144.146,129.275 143.354,129.182 142.871 C 129.089 142.388,129.013 142.783,129.013 143.750 M274.309 145.703 C 274.309 146.455,274.390 146.763,274.488 146.387 C 274.586 146.011,274.586 145.396,274.488 145.020 C 274.390 144.644,274.309 144.951,274.309 145.703 M125.481 146.094 C 125.481 146.846,125.562 147.153,125.660 146.777 C 125.758 146.401,125.758 145.786,125.660 145.410 C 125.562 145.034,125.481 145.342,125.481 146.094 M221.605 147.852 C 221.608 149.141,221.681 149.621,221.767 148.919 C 221.854 148.217,221.853 147.162,221.763 146.575 C 221.674 145.988,221.603 146.563,221.605 147.852 M201.823 163.932 C 201.680 164.076,201.563 167.184,201.563 170.841 C 201.563 177.178,201.521 177.536,200.684 178.490 L 199.805 179.492 200.862 178.561 L 201.920 177.629 202.034 170.650 C 202.097 166.812,202.134 163.671,202.116 163.671 C 202.098 163.672,201.966 163.789,201.823 163.932 M157.965 166.573 C 157.847 166.880,157.816 167.539,157.896 168.038 C 158.003 168.705,158.094 168.558,158.239 167.480 C 158.444 165.964,158.336 165.606,157.965 166.573 M176.079 173.714 C 176.565 173.807,177.268 173.804,177.641 173.706 C 178.015 173.608,177.617 173.532,176.758 173.536 C 175.898 173.540,175.593 173.620,176.079 173.714 M222.363 173.717 C 222.954 173.807,223.921 173.807,224.512 173.717 C 225.103 173.628,224.619 173.555,223.438 173.555 C 222.256 173.555,221.772 173.628,222.363 173.717 M153.502 178.809 L 151.367 181.055 153.613 178.920 C 155.700 176.936,156.038 176.563,155.748 176.563 C 155.687 176.563,154.677 177.573,153.502 178.809 M246.094 178.711 C 246.823 179.463,247.507 180.078,247.614 180.078 C 247.722 180.078,247.213 179.463,246.484 178.711 C 245.756 177.959,245.071 177.344,244.964 177.344 C 244.857 177.344,245.365 177.959,246.094 178.711 M202.713 182.324 L 201.367 183.789 202.832 182.443 C 204.195 181.190,204.476 180.859,204.178 180.859 C 204.113 180.859,203.454 181.519,202.713 182.324 M301.313 185.547 C 301.313 187.588,301.379 188.423,301.459 187.402 C 301.539 186.382,301.539 184.712,301.459 183.691 C 301.379 182.671,301.313 183.506,301.313 185.547 M251.803 186.328 C 252.043 186.650,252.320 187.173,252.418 187.490 C 252.541 187.883,252.673 187.778,252.835 187.158 C 252.965 186.659,252.968 186.355,252.842 186.481 C 252.715 186.608,252.331 186.494,251.989 186.227 C 251.464 185.817,251.435 185.833,251.803 186.328 M162.870 187.793 L 161.523 189.258 162.988 187.912 C 163.794 187.171,164.453 186.512,164.453 186.447 C 164.453 186.149,164.123 186.430,162.870 187.793 M98.569 189.453 C 98.569 191.064,98.638 191.724,98.722 190.918 C 98.806 190.112,98.806 188.794,98.722 187.988 C 98.638 187.183,98.569 187.842,98.569 189.453 M297.387 189.648 C 297.389 190.938,297.462 191.418,297.549 190.716 C 297.636 190.014,297.634 188.959,297.545 188.372 C 297.456 187.785,297.384 188.359,297.387 189.648 M144.702 189.355 C 145.897 190.677,146.484 190.946,146.484 190.169 C 146.484 189.919,146.365 189.833,146.218 189.979 C 146.072 190.126,145.413 189.759,144.754 189.166 L 143.555 188.086 144.702 189.355 M268.139 189.551 L 266.992 190.820 268.262 189.673 C 268.960 189.042,269.531 188.471,269.531 188.403 C 269.531 188.102,269.209 188.367,268.139 189.551 M102.469 191.406 C 102.469 192.803,102.540 193.374,102.626 192.676 C 102.713 191.978,102.713 190.835,102.626 190.137 C 102.540 189.438,102.469 190.010,102.469 191.406 M165.802 190.723 L 164.258 192.383 165.918 190.839 C 167.462 189.403,167.758 189.063,167.462 189.063 C 167.398 189.063,166.651 189.810,165.802 190.723 M277.846 190.820 C 277.849 191.895,277.925 192.288,278.015 191.694 C 278.104 191.100,278.102 190.221,278.009 189.741 C 277.917 189.260,277.843 189.746,277.846 190.820 M121.974 191.992 C 121.978 192.852,122.058 193.157,122.151 192.671 C 122.245 192.185,122.241 191.482,122.143 191.109 C 122.046 190.735,121.969 191.133,121.974 191.992 M273.919 193.750 C 273.919 194.502,273.999 194.810,274.097 194.434 C 274.196 194.058,274.196 193.442,274.097 193.066 C 273.999 192.690,273.919 192.998,273.919 193.750 M300.906 195.703 C 300.906 197.100,300.977 197.671,301.064 196.973 C 301.150 196.274,301.150 195.132,301.064 194.434 C 300.977 193.735,300.906 194.307,300.906 195.703 M125.880 195.117 C 125.884 195.977,125.964 196.282,126.058 195.796 C 126.151 195.310,126.147 194.607,126.050 194.234 C 125.952 193.860,125.875 194.258,125.880 195.117 M277.450 196.875 C 277.450 197.842,277.526 198.237,277.619 197.754 C 277.713 197.271,277.713 196.479,277.619 195.996 C 277.526 195.513,277.450 195.908,277.450 196.875 M297.000 197.656 C 297.000 199.053,297.071 199.624,297.158 198.926 C 297.244 198.228,297.244 197.085,297.158 196.387 C 297.071 195.688,297.000 196.260,297.000 197.656 M130.958 197.852 C 130.962 198.711,131.042 199.017,131.136 198.531 C 131.229 198.045,131.226 197.342,131.128 196.968 C 131.030 196.595,130.954 196.992,130.958 197.852 M268.856 198.047 C 268.856 199.014,268.933 199.409,269.026 198.926 C 269.119 198.442,269.119 197.651,269.026 197.168 C 268.933 196.685,268.856 197.080,268.856 198.047 M98.945 198.828 C 98.945 200.010,99.018 200.493,99.108 199.902 C 99.197 199.312,99.197 198.345,99.108 197.754 C 99.018 197.163,98.945 197.646,98.945 198.828 M122.372 198.438 C 122.372 199.404,122.448 199.800,122.541 199.316 C 122.634 198.833,122.634 198.042,122.541 197.559 C 122.448 197.075,122.372 197.471,122.372 198.438 M102.855 199.805 C 102.858 201.094,102.931 201.574,103.017 200.872 C 103.104 200.170,103.103 199.115,103.013 198.528 C 102.924 197.941,102.853 198.516,102.855 199.805 M273.544 199.219 C 273.544 200.186,273.620 200.581,273.713 200.098 C 273.806 199.614,273.806 198.823,273.713 198.340 C 273.620 197.856,273.544 198.252,273.544 199.219 M250.924 201.758 C 250.925 203.906,250.991 204.735,251.070 203.600 C 251.149 202.465,251.148 200.707,251.068 199.694 C 250.988 198.681,250.923 199.609,250.924 201.758 M126.284 200.586 C 126.287 201.660,126.362 202.053,126.452 201.459 C 126.542 200.866,126.540 199.987,126.447 199.506 C 126.354 199.026,126.281 199.512,126.284 200.586 M157.159 201.758 C 157.161 203.262,157.232 203.829,157.316 203.019 C 157.401 202.208,157.399 200.978,157.313 200.284 C 157.227 199.591,157.158 200.254,157.159 201.758 M138.672 199.732 C 138.672 199.799,139.243 200.370,139.941 201.001 L 141.211 202.148 140.064 200.879 C 138.994 199.696,138.672 199.430,138.672 199.732 M277.052 202.539 C 277.056 203.398,277.136 203.704,277.229 203.218 C 277.323 202.732,277.319 202.029,277.222 201.656 C 277.124 201.282,277.047 201.680,277.052 202.539 M161.036 202.930 C 161.040 203.789,161.120 204.095,161.214 203.609 C 161.307 203.123,161.304 202.420,161.206 202.046 C 161.108 201.673,161.032 202.070,161.036 202.930 M300.512 204.102 C 300.514 205.391,300.587 205.871,300.674 205.169 C 300.761 204.467,300.759 203.412,300.670 202.825 C 300.581 202.238,300.509 202.813,300.512 204.102 M134.864 203.711 C 134.868 204.570,134.948 204.876,135.042 204.390 C 135.135 203.904,135.132 203.201,135.034 202.827 C 134.936 202.454,134.860 202.852,134.864 203.711 M122.763 204.297 C 122.763 205.264,122.839 205.659,122.932 205.176 C 123.025 204.692,123.025 203.901,122.932 203.418 C 122.839 202.935,122.763 203.330,122.763 204.297 M273.145 204.492 C 273.150 205.352,273.230 205.657,273.323 205.171 C 273.417 204.685,273.413 203.982,273.315 203.609 C 273.217 203.235,273.141 203.633,273.145 204.492 M99.336 206.250 C 99.336 207.432,99.409 207.915,99.499 207.324 C 99.588 206.733,99.588 205.767,99.499 205.176 C 99.409 204.585,99.336 205.068,99.336 206.250 M126.653 205.859 C 126.653 206.611,126.734 206.919,126.832 206.543 C 126.930 206.167,126.930 205.552,126.832 205.176 C 126.734 204.800,126.653 205.107,126.653 205.859 M268.488 207.227 C 268.489 208.730,268.560 209.298,268.644 208.487 C 268.729 207.677,268.728 206.446,268.641 205.753 C 268.555 205.060,268.486 205.723,268.488 207.227 M296.609 207.031 C 296.609 208.428,296.680 208.999,296.767 208.301 C 296.854 207.603,296.854 206.460,296.767 205.762 C 296.680 205.063,296.609 205.635,296.609 207.031 M131.386 208.203 C 131.386 210.029,131.454 210.776,131.536 209.863 C 131.618 208.950,131.618 207.456,131.536 206.543 C 131.454 205.630,131.386 206.377,131.386 208.203 M257.528 207.031 C 257.528 207.998,257.604 208.394,257.698 207.910 C 257.791 207.427,257.791 206.636,257.698 206.152 C 257.604 205.669,257.528 206.064,257.528 207.031 M142.305 207.813 C 142.305 208.994,142.378 209.478,142.467 208.887 C 142.557 208.296,142.557 207.329,142.467 206.738 C 142.378 206.147,142.305 206.631,142.305 207.813 M103.246 208.398 C 103.248 209.687,103.321 210.168,103.408 209.466 C 103.495 208.764,103.493 207.709,103.404 207.122 C 103.315 206.535,103.244 207.109,103.246 208.398 M276.669 208.203 C 276.669 209.170,276.745 209.565,276.838 209.082 C 276.931 208.599,276.931 207.808,276.838 207.324 C 276.745 206.841,276.669 207.236,276.669 208.203 M272.747 208.984 C 272.747 209.736,272.827 210.044,272.926 209.668 C 273.024 209.292,273.024 208.677,272.926 208.301 C 272.827 207.925,272.747 208.232,272.747 208.984 M123.153 209.766 C 123.153 210.732,123.229 211.128,123.323 210.645 C 123.416 210.161,123.416 209.370,123.323 208.887 C 123.229 208.403,123.153 208.799,123.153 209.766 M264.587 211.133 C 264.588 212.852,264.657 213.506,264.740 212.587 C 264.822 211.669,264.821 210.262,264.737 209.462 C 264.653 208.662,264.586 209.414,264.587 211.133 M127.052 210.352 C 127.056 211.211,127.136 211.517,127.229 211.031 C 127.323 210.545,127.319 209.842,127.222 209.468 C 127.124 209.095,127.047 209.492,127.052 210.352 M261.076 212.695 C 261.075 214.629,261.141 215.469,261.223 214.563 C 261.305 213.656,261.306 212.074,261.225 211.047 C 261.144 210.020,261.077 210.762,261.076 212.695 M135.284 212.695 C 135.286 214.199,135.357 214.767,135.441 213.956 C 135.526 213.146,135.524 211.915,135.438 211.222 C 135.352 210.528,135.283 211.191,135.284 212.695 M138.752 213.597 C 138.694 216.230,138.547 217.157,138.221 216.955 C 137.930 216.775,137.876 216.849,138.070 217.161 C 138.734 218.236,139.089 216.759,138.964 213.441 L 138.833 209.961 138.752 213.597 M300.117 212.109 C 300.117 213.291,300.190 213.774,300.280 213.184 C 300.369 212.593,300.369 211.626,300.280 211.035 C 300.190 210.444,300.117 210.928,300.117 212.109 M99.716 212.891 C 99.716 213.857,99.792 214.253,99.885 213.770 C 99.978 213.286,99.978 212.495,99.885 212.012 C 99.792 211.528,99.716 211.924,99.716 212.891 M276.172 212.672 C 276.172 213.197,276.316 213.715,276.492 213.824 C 276.668 213.932,276.736 213.503,276.643 212.870 C 276.438 211.474,276.172 211.362,276.172 212.672 M257.165 216.211 C 257.167 217.930,257.235 218.584,257.318 217.665 C 257.400 216.747,257.399 215.340,257.315 214.540 C 257.231 213.740,257.164 214.492,257.165 216.211 M270.801 216.285 C 271.177 216.383,271.792 216.383,272.168 216.285 C 272.544 216.187,272.236 216.106,271.484 216.106 C 270.732 216.106,270.425 216.187,270.801 216.285 M142.623 218.825 C 142.599 220.047,142.710 221.129,142.871 221.229 C 143.032 221.328,143.112 220.592,143.047 219.592 C 142.864 216.739,142.673 216.393,142.623 218.825 M122.356 221.484 C 122.356 222.236,122.437 222.544,122.535 222.168 C 122.633 221.792,122.633 221.177,122.535 220.801 C 122.437 220.425,122.356 220.732,122.356 221.484 M281.341 221.484 C 281.341 222.236,281.421 222.544,281.519 222.168 C 281.618 221.792,281.618 221.177,281.519 220.801 C 281.421 220.425,281.341 220.732,281.341 221.484 M123.828 225.903 C 123.828 225.971,124.399 226.542,125.098 227.173 L 126.367 228.320 125.220 227.051 C 124.150 225.867,123.828 225.602,123.828 225.903 M238.373 228.136 C 237.671 228.775,237.243 229.297,237.421 229.297 C 237.599 229.297,238.250 228.770,238.867 228.125 C 240.303 226.626,240.026 226.633,238.373 228.136 M276.563 230.273 C 274.962 231.885,273.740 233.203,273.848 233.203 C 273.955 233.203,275.353 231.885,276.953 230.273 C 278.554 228.662,279.775 227.344,279.668 227.344 C 279.561 227.344,278.163 228.662,276.563 230.273 M271.271 230.176 L 269.727 231.836 271.387 230.292 C 272.931 228.856,273.226 228.516,272.931 228.516 C 272.867 228.516,272.120 229.263,271.271 230.176 M128.890 230.566 C 130.509 232.291,130.859 232.601,130.859 232.308 C 130.859 232.245,130.024 231.410,129.004 230.452 L 127.148 228.711 128.890 230.566 M125.374 232.520 C 126.993 234.244,127.344 234.554,127.344 234.261 C 127.344 234.198,126.509 233.363,125.488 232.406 L 123.633 230.664 125.374 232.520 M266.385 234.668 L 265.039 236.133 266.504 234.787 C 267.867 233.534,268.148 233.203,267.850 233.203 C 267.785 233.203,267.126 233.862,266.385 234.668 M133.789 235.156 C 134.628 236.016,135.403 236.719,135.510 236.719 C 135.618 236.719,135.019 236.016,134.180 235.156 C 133.341 234.297,132.566 233.594,132.459 233.594 C 132.351 233.594,132.950 234.297,133.789 235.156 M270.489 236.035 L 268.945 237.695 270.605 236.151 C 272.149 234.715,272.445 234.375,272.150 234.375 C 272.086 234.375,271.339 235.122,270.489 236.035 M130.273 237.109 C 131.113 237.969,131.887 238.672,131.994 238.672 C 132.102 238.672,131.503 237.969,130.664 237.109 C 129.825 236.250,129.050 235.547,128.943 235.547 C 128.836 235.547,129.434 236.250,130.273 237.109 M260.938 239.648 C 259.989 240.615,259.300 241.406,259.408 241.406 C 259.515 241.406,260.379 240.615,261.328 239.648 C 262.277 238.682,262.965 237.891,262.858 237.891 C 262.751 237.891,261.886 238.682,260.938 239.648 M139.453 240.430 C 140.620 241.611,141.663 242.578,141.770 242.578 C 141.878 242.578,141.011 241.611,139.844 240.430 C 138.677 239.248,137.634 238.281,137.527 238.281 C 137.419 238.281,138.286 239.248,139.453 240.430 M265.415 240.723 L 263.477 242.773 265.527 240.835 C 266.655 239.769,267.578 238.846,267.578 238.784 C 267.578 238.493,267.216 238.817,265.415 240.723 M216.591 242.285 L 213.867 245.117 216.699 242.393 C 219.330 239.863,219.710 239.453,219.423 239.453 C 219.364 239.453,218.089 240.728,216.591 242.285 M135.140 241.504 C 136.759 243.229,137.109 243.539,137.109 243.245 C 137.109 243.183,136.274 242.348,135.254 241.390 L 133.398 239.648 135.140 241.504 M183.203 242.383 C 184.370 243.564,185.413 244.531,185.520 244.531 C 185.628 244.531,184.761 243.564,183.594 242.383 C 182.427 241.201,181.384 240.234,181.277 240.234 C 181.169 240.234,182.036 241.201,183.203 242.383 M179.671 245.020 C 181.290 246.744,181.641 247.054,181.641 246.761 C 181.641 246.698,180.806 245.863,179.785 244.906 L 177.930 243.164 179.671 245.020 M259.375 246.289 C 257.774 247.900,256.553 249.219,256.660 249.219 C 256.768 249.219,258.165 247.900,259.766 246.289 C 261.366 244.678,262.588 243.359,262.480 243.359 C 262.373 243.359,260.976 244.678,259.375 246.289 M254.478 245.801 L 252.539 247.852 254.590 245.913 C 256.495 244.112,256.820 243.750,256.528 243.750 C 256.466 243.750,255.544 244.673,254.478 245.801 M141.016 247.070 C 142.400 248.467,143.620 249.609,143.727 249.609 C 143.835 249.609,142.790 248.467,141.406 247.070 C 140.022 245.674,138.802 244.531,138.694 244.531 C 138.587 244.531,139.632 245.674,141.016 247.070 M145.898 246.484 C 146.738 247.344,147.512 248.047,147.619 248.047 C 147.727 248.047,147.128 247.344,146.289 246.484 C 145.450 245.625,144.675 244.922,144.568 244.922 C 144.461 244.922,145.059 245.625,145.898 246.484 M174.219 245.044 C 174.219 245.111,174.790 245.683,175.488 246.314 L 176.758 247.461 175.611 246.191 C 174.541 245.008,174.219 244.742,174.219 245.044 M205.249 259.473 L 204.102 260.742 205.371 259.595 C 206.069 258.964,206.641 258.393,206.641 258.325 C 206.641 258.024,206.318 258.289,205.249 259.473 M191.106 269.922 C 191.106 270.674,191.187 270.981,191.285 270.605 C 191.383 270.229,191.383 269.614,191.285 269.238 C 191.187 268.862,191.106 269.170,191.106 269.922 M208.692 270.117 C 208.697 270.977,208.777 271.282,208.870 270.796 C 208.963 270.310,208.960 269.607,208.862 269.234 C 208.764 268.860,208.688 269.258,208.692 270.117 M187.664 281.055 C 187.664 285.352,187.721 287.163,187.791 285.079 C 187.861 282.996,187.861 279.480,187.792 277.267 C 187.722 275.053,187.664 276.758,187.664 281.055 M247.436 275.879 L 246.289 277.148 247.559 276.001 C 248.257 275.370,248.828 274.799,248.828 274.732 C 248.828 274.430,248.506 274.696,247.436 275.879 M250.177 278.613 L 248.633 280.273 250.293 278.729 C 251.837 277.293,252.133 276.953,251.837 276.953 C 251.773 276.953,251.026 277.700,250.177 278.613 M148.438 277.466 C 148.438 277.533,149.009 278.104,149.707 278.736 L 150.977 279.883 149.829 278.613 C 148.760 277.430,148.438 277.164,148.438 277.466 M212.268 287.500 C 212.268 291.045,212.328 292.495,212.400 290.723 C 212.472 288.950,212.472 286.050,212.400 284.277 C 212.328 282.505,212.268 283.955,212.268 287.500 M245.794 288.281 C 245.794 289.033,245.874 289.341,245.972 288.965 C 246.071 288.589,246.071 287.974,245.972 287.598 C 245.874 287.222,245.794 287.529,245.794 288.281 M157.930 289.453 C 157.930 290.635,158.003 291.118,158.092 290.527 C 158.182 289.937,158.182 288.970,158.092 288.379 C 158.003 287.788,157.930 288.271,157.930 289.453 M241.903 289.844 C 241.903 290.811,241.979 291.206,242.073 290.723 C 242.166 290.239,242.166 289.448,242.073 288.965 C 241.979 288.481,241.903 288.877,241.903 289.844 M164.551 297.949 C 169.224 298.011,176.870 298.011,181.543 297.949 C 186.216 297.886,182.393 297.836,173.047 297.836 C 163.701 297.836,159.878 297.886,164.551 297.949 M218.679 297.949 C 223.474 298.011,231.208 298.011,235.866 297.949 C 240.525 297.886,236.602 297.836,227.148 297.836 C 217.695 297.836,213.884 297.887,218.679 297.949 M170.612 331.533 C 171.315 331.620,172.369 331.618,172.956 331.529 C 173.543 331.440,172.969 331.369,171.680 331.371 C 170.391 331.373,169.910 331.446,170.612 331.533 M138.457 332.137 C 138.352 332.409,138.314 336.848,138.372 342.000 L 138.477 351.367 143.945 351.383 L 149.414 351.399 144.043 351.275 L 138.672 351.150 138.672 341.602 L 138.672 332.053 144.238 331.933 L 149.805 331.813 144.226 331.727 C 140.013 331.662,138.601 331.762,138.457 332.137 M186.816 331.920 C 187.407 332.010,188.374 332.010,188.965 331.920 C 189.556 331.831,189.072 331.758,187.891 331.758 C 186.709 331.758,186.226 331.831,186.816 331.920 M199.303 336.621 L 199.388 341.602 199.511 336.816 L 199.633 332.031 201.770 332.031 L 203.906 332.031 203.906 341.602 L 203.906 351.172 202.076 351.172 C 200.735 351.172,199.978 350.937,199.244 350.293 L 198.242 349.414 199.189 350.488 C 199.999 351.407,200.437 351.563,202.217 351.563 L 204.297 351.563 204.297 341.602 L 204.297 331.641 201.758 331.641 L 199.219 331.641 199.303 336.621 M215.430 331.874 C 217.228 332.166,220.226 332.205,220.057 331.934 C 219.958 331.772,218.700 331.665,217.262 331.694 C 215.825 331.723,215.000 331.804,215.430 331.874 M235.427 331.933 L 244.096 332.046 244.246 333.699 L 244.395 335.352 244.463 333.496 L 244.531 331.641 235.645 331.730 L 226.758 331.820 235.427 331.933 M246.619 332.243 C 246.492 332.575,246.497 332.956,246.631 333.090 C 246.765 333.224,246.875 333.044,246.875 332.691 C 246.875 332.121,247.723 332.035,254.395 331.933 L 261.914 331.818 254.382 331.729 C 247.900 331.653,246.818 331.725,246.619 332.243 M178.125 333.325 C 178.125 333.393,178.696 333.964,179.395 334.595 L 180.664 335.742 179.517 334.473 C 178.447 333.289,178.125 333.024,178.125 333.325 M246.635 339.063 C 246.635 341.748,246.697 342.847,246.774 341.504 C 246.850 340.161,246.850 337.964,246.774 336.621 C 246.697 335.278,246.635 336.377,246.635 339.063 M144.629 335.831 C 145.435 335.916,146.753 335.916,147.559 335.831 C 148.364 335.747,147.705 335.678,146.094 335.678 C 144.482 335.678,143.823 335.747,144.629 335.831 M228.418 335.833 C 229.331 335.915,230.825 335.915,231.738 335.833 C 232.651 335.751,231.904 335.683,230.078 335.683 C 228.252 335.683,227.505 335.751,228.418 335.833 M237.891 343.341 L 237.891 351.135 235.449 351.273 L 233.008 351.412 235.645 351.487 L 238.281 351.563 238.281 343.766 L 238.281 335.969 241.504 335.837 L 244.727 335.706 241.309 335.626 L 237.891 335.547 237.891 343.341 M257.520 335.831 C 258.325 335.916,259.644 335.916,260.449 335.831 C 261.255 335.747,260.596 335.678,258.984 335.678 C 257.373 335.678,256.714 335.747,257.520 335.831 M256.144 339.735 C 256.837 339.821,258.068 339.823,258.878 339.738 C 259.688 339.654,259.121 339.583,257.617 339.581 C 256.113 339.580,255.450 339.649,256.144 339.735 M165.737 341.602 C 165.740 342.676,165.816 343.069,165.905 342.475 C 165.995 341.881,165.993 341.002,165.900 340.522 C 165.807 340.042,165.734 340.527,165.737 341.602 M190.764 343.555 C 190.762 345.488,190.829 346.329,190.910 345.422 C 190.992 344.515,190.993 342.933,190.913 341.906 C 190.832 340.879,190.765 341.621,190.764 343.555 M256.348 343.253 C 257.153 343.338,258.472 343.338,259.277 343.253 C 260.083 343.169,259.424 343.100,257.813 343.100 C 256.201 343.100,255.542 343.169,256.348 343.253 M151.987 345.462 L 151.044 346.680 152.161 345.617 C 152.776 345.033,153.200 344.485,153.104 344.399 C 153.008 344.314,152.505 344.792,151.987 345.462 M246.591 348.438 C 246.591 349.404,246.667 349.800,246.760 349.316 C 246.853 348.833,246.853 348.042,246.760 347.559 C 246.667 347.075,246.591 347.471,246.591 348.438 M144.629 347.550 C 145.435 347.634,146.753 347.634,147.559 347.550 C 148.364 347.466,147.705 347.397,146.094 347.397 C 144.482 347.397,143.823 347.466,144.629 347.550 M216.406 347.508 C 218.668 347.798,222.180 347.830,222.011 347.559 C 221.911 347.397,220.389 347.292,218.629 347.324 C 216.870 347.356,215.869 347.439,216.406 347.508 M254.605 347.555 C 255.956 347.632,258.066 347.631,259.293 347.554 C 260.520 347.477,259.414 347.414,256.836 347.415 C 254.258 347.416,253.254 347.479,254.605 347.555 M262.049 349.255 L 262.185 351.172 254.562 351.172 C 249.747 351.172,246.867 351.024,246.742 350.771 C 246.632 350.551,246.588 350.595,246.644 350.869 C 246.720 351.249,248.618 351.392,254.622 351.473 L 262.500 351.579 262.500 349.641 C 262.500 348.575,262.368 347.621,262.207 347.521 C 262.046 347.421,261.975 348.201,262.049 349.255 M223.146 350.781 C 223.266 351.226,223.955 351.375,226.008 351.400 L 228.711 351.432 226.182 351.281 C 224.791 351.198,223.503 350.920,223.320 350.663 C 223.086 350.334,223.035 350.370,223.146 350.781 M208.789 351.172 L 206.055 351.425 208.887 351.494 C 210.560 351.534,211.719 351.403,211.719 351.172 C 211.719 350.957,211.675 350.812,211.621 350.850 C 211.567 350.888,210.293 351.033,208.789 351.172 M187.012 351.454 C 187.710 351.541,188.853 351.541,189.551 351.454 C 190.249 351.368,189.678 351.297,188.281 351.297 C 186.885 351.297,186.313 351.368,187.012 351.454 M170.605 351.838 C 171.089 351.931,171.880 351.931,172.363 351.838 C 172.847 351.745,172.451 351.669,171.484 351.669 C 170.518 351.669,170.122 351.745,170.605 351.838 " stroke="none" fill="#a5a8a9" fill-rule="evenodd"></path></g></svg>